HIERARCHY
ROOT SpineBase
{
  OFFSET 0.000000 0.000000 0.000000
  CHANNELS 6 Xposition Yposition Zposition Zrotation Xrotation Yrotation
  JOINT SpineMid
  {
    OFFSET 0.000000 31.325508 0.000000
    CHANNELS 3 Zrotation Xrotation Yrotation
    JOINT SpineShoulder
    {
      OFFSET -0.146429 23.252397 -0.866251
      CHANNELS 3 Zrotation Xrotation Yrotation
      JOINT Neck
      {
        OFFSET -0.050069 7.723552 -0.641109
        CHANNELS 3 Zrotation Xrotation Yrotation
        JOINT Head
        {
          OFFSET -4.238372 10.573691 3.574060
          CHANNELS 3 Zrotation Xrotation Yrotation
          End Site
          {
            OFFSET 0 0 0
          }
        }
      }
      JOINT ShoulderLeft
      {
        OFFSET -7.402187 -3.812412 11.420620
        CHANNELS 3 Zrotation Xrotation Yrotation
        JOINT ElbowLeft
        {
          OFFSET 0.171284 -24.884570 -3.295834
          CHANNELS 3 Zrotation Xrotation Yrotation
          JOINT WristLeft
          {
            OFFSET -4.932784 -22.455129 8.499746
            CHANNELS 3 Zrotation Xrotation Yrotation
            JOINT HandLeft
            {
              OFFSET -1.034972 -8.660285 -0.575006
              CHANNELS 3 Zrotation Xrotation Yrotation
              JOINT HandTipLeft
              {
                OFFSET -0.616880 -3.851151 -0.177474
                CHANNELS 3 Zrotation Xrotation Yrotation
                End Site
                {
                  OFFSET 0 0 0
                }
              }
              JOINT ThumbLeft
              {
                OFFSET 0.672546 0.949734 -4.254172
                CHANNELS 3 Zrotation Xrotation Yrotation
                End Site
                {
                  OFFSET 0 0 0
                }
              }
            }
          }
        }
      }
      JOINT ShoulderRight
      {
        OFFSET 5.868468 -3.851437 -12.463605
        CHANNELS 3 Zrotation Xrotation Yrotation
        JOINT ElbowRight
        {
          OFFSET 1.350028 -23.056835 -7.314712
          CHANNELS 3 Zrotation Xrotation Yrotation
          JOINT WristRight
          {
            OFFSET -7.534735 -19.199002 -0.808445
            CHANNELS 3 Zrotation Xrotation Yrotation
            JOINT HandRight
            {
              OFFSET -3.209544 -9.433182 2.333336
              CHANNELS 3 Zrotation Xrotation Yrotation
              JOINT HandTipRight
              {
                OFFSET -6.420078 -6.136921 -1.590687
                CHANNELS 3 Zrotation Xrotation Yrotation
                End Site
                {
                  OFFSET 0 0 0
                }
              }
              JOINT ThumbRight
              {
                OFFSET 5.268583 0.735563 2.330415
                CHANNELS 3 Zrotation Xrotation Yrotation
                End Site
                {
                  OFFSET 0 0 0
                }
              }
            }
          }
        }
      }
    }
  }
  JOINT HipLeft
  {
    OFFSET -3.679675 0.962176 0.915460
    CHANNELS 3 Zrotation Xrotation Yrotation
    JOINT KneeLeft
    {
      OFFSET 9.357508 -24.181240 -9.858752
      CHANNELS 3 Zrotation Xrotation Yrotation
      JOINT AnkleLeft
      {
        OFFSET 9.701028 -37.335532 9.066280
        CHANNELS 3 Zrotation Xrotation Yrotation
        JOINT FootLeft
        {
          OFFSET -8.540166 -4.224826 -7.616115
          CHANNELS 3 Zrotation Xrotation Yrotation
          End Site
          {
            OFFSET 0 0 0
          }
        }
      }
    }
  }
  JOINT HipRight
  {
    OFFSET 3.362322 1.229184 -8.027960
    CHANNELS 3 Zrotation Xrotation Yrotation
    JOINT KneeRight
    {
      OFFSET 0.794815 -32.849536 1.826200
      CHANNELS 3 Zrotation Xrotation Yrotation
      JOINT AnkleRight
      {
        OFFSET 11.408433 -31.899256 7.715869
        CHANNELS 3 Zrotation Xrotation Yrotation
        JOINT FootRight
        {
          OFFSET 0.223704 -8.565969 -1.671264
          CHANNELS 3 Zrotation Xrotation Yrotation
          End Site
          {
            OFFSET 0 0 0
          }
        }
      }
    }
  }
}
MOTION
Frames: 7
Frame Time: 0.033333
4.374783 73.944093 313.693317 5.834055 -4.508296 37.472217 0.425715 -0.032064 -37.064974 0.231692 0.129200 0.285236 -3.799027 -5.661780 -5.183233 0.000000 0.000000 0.000000 -42.120755 -14.774390 1.106811 8.401277 67.400384 -12.507485 -17.692483 -23.095679 5.090828 -10.235340 -30.468358 -15.223345 0.000000 0.000000 0.000000 0.000000 0.000000 0.000000 31.826277 27.526078 -20.338532 -36.922935 7.511213 -15.107919 -39.026600 -0.051281 -24.772027 35.184364 -4.675717 15.270258 0.000000 0.000000 0.000000 0.000000 0.000000 0.000000 -40.713300 3.497911 -30.394490 41.104649 23.032913 -10.520106 7.087077 4.865611 -48.311001 0.000000 0.000000 0.000000 6.521688 8.235388 -37.775629 -8.551512 -8.487040 -2.641362 -47.045667 44.908823 32.485008 0.000000 0.000000 0.000000
2.665942 74.070843 313.597335 6.202564 -5.102798 31.527165 0.771113 -0.015173 -31.075581 0.240165 0.103981 0.315908 -2.985387 -6.754702 -6.298577 0.000000 0.000000 0.000000 -52.972014 -11.676270 3.168882 10.195439 66.664960 -12.751957 -16.735758 -20.681610 8.755940 -17.556099 -25.217293 -20.118607 0.000000 0.000000 0.000000 0.000000 0.000000 0.000000 40.910462 33.877151 -28.008336 -45.218829 13.226470 -24.841867 -43.692722 -10.827908 -36.773458 26.828920 1.383134 15.631377 0.000000 0.000000 0.000000 0.000000 0.000000 0.000000 -44.775570 -4.381300 -29.316046 38.080686 30.185255 -10.480169 12.715416 2.693170 -47.213312 0.000000 0.000000 0.000000 5.446082 9.423046 -31.807589 -6.953434 -7.365673 -1.719119 -43.472897 48.467961 29.780293 0.000000 0.000000 0.000000
1.303402 74.389463 313.227378 7.487167 -5.458991 25.631017 0.633628 0.342175 -25.070473 0.168387 0.074246 0.361065 -4.096070 -7.566406 -6.703258 0.000000 0.000000 0.000000 -62.417027 -6.348533 6.812367 11.692958 59.085708 -15.055337 -14.499762 -20.836098 12.433629 -14.773072 -13.529982 -14.582003 0.000000 0.000000 0.000000 0.000000 0.000000 0.000000 49.492046 38.352243 -35.892055 -57.325388 21.255105 -35.556926 -39.171833 -17.639467 -45.078690 17.782983 -1.382319 19.973690 0.000000 0.000000 0.000000 0.000000 0.000000 0.000000 -47.884570 -10.809269 -26.983388 31.795128 35.461509 -8.428034 19.201221 -0.764483 -38.942794 0.000000 0.000000 0.000000 3.607386 10.441206 -25.781156 -6.564915 -6.540993 -1.276371 -38.813794 51.753131 26.973982 0.000000 0.000000 0.000000
-0.710435 74.387668 312.891202 9.105443 -5.850117 20.366164 0.300337 0.647859 -19.653203 0.008319 0.058624 0.411860 -6.058106 -8.042544 -6.795017 0.000000 0.000000 0.000000 -71.662151 -3.818771 9.830506 18.550950 53.877375 -18.365365 -20.618518 -20.919755 10.341658 -4.779792 -5.491194 -7.554261 0.000000 0.000000 0.000000 0.000000 0.000000 0.000000 56.577110 40.401165 -42.680355 -73.101501 33.437061 -44.737258 -32.259482 -25.562147 -53.714306 11.288725 -6.743874 27.300857 0.000000 0.000000 0.000000 0.000000 0.000000 0.000000 -48.644318 -15.090027 -23.496341 22.630826 37.435575 -4.598517 25.755452 -5.392749 -22.465516 0.000000 0.000000 0.000000 1.385263 11.250723 -20.294176 -5.256039 -5.721292 -0.561523 -34.466948 54.436167 23.283330 0.000000 0.000000 0.000000
-3.209278 74.069166 312.701517 10.402731 -6.430311 16.070856 0.218270 0.642606 -15.198370 0.002052 0.044794 0.469641 -8.188027 -7.657224 -6.656333 0.000000 0.000000 0.000000 -79.924302 -1.141870 13.601278 21.876193 47.015516 -20.956963 -21.065887 -19.139080 13.012173 0.355258 2.279103 -1.892850 0.000000 0.000000 0.000000 0.000000 0.000000 0.000000 64.166986 41.266541 -50.125150 -96.242242 44.006245 -49.726462 -20.382296 -29.879003 -56.592691 14.417933 -18.635632 36.264277 0.000000 0.000000 0.000000 0.000000 0.000000 0.000000 -46.856543 -15.269609 -17.382522 14.055678 34.209457 -2.531485 31.604133 -9.825479 0.338987 0.000000 0.000000 0.000000 0.518314 11.692277 -15.873397 -4.300369 -5.028768 0.194206 -29.673635 56.765259 18.576410 0.000000 0.000000 0.000000
-5.925518 73.532166 312.481636 12.327184 -6.698008 13.851535 -0.370473 0.785460 -12.766547 -0.042000 0.026758 0.530549 -9.493632 -7.624895 -6.793362 0.000000 0.000000 0.000000 -85.317324 0.124569 15.851131 22.355013 42.758635 -22.554769 -18.550629 -16.629308 17.413116 4.268258 4.525515 0.424672 0.000000 0.000000 0.000000 0.000000 0.000000 0.000000 71.936330 39.921075 -57.033023 -129.409995 48.015110 -48.179969 -7.125270 -28.000767 -53.341204 25.821123 -27.533780 45.849898 0.000000 0.000000 0.000000 0.000000 0.000000 0.000000 -48.073327 -16.501282 -15.005978 10.339010 34.710607 -1.067518 38.090032 -14.535040 12.945942 0.000000 0.000000 0.000000 -0.594429 11.572370 -13.462990 -3.505827 -4.014857 0.896099 -27.677554 57.376778 15.295856 0.000000 0.000000 0.000000
-9.261222 72.868915 312.093814 14.709271 -6.352191 13.156471 -0.414615 0.781642 -11.897577 -0.393305 -0.006869 0.630432 -15.771916 -8.655771 -5.910321 0.000000 0.000000 0.000000 -88.629554 0.972402 16.604489 21.238388 40.475719 -23.476692 -15.982864 -14.904772 20.613363 10.355641 9.957586 4.652058 0.000000 0.000000 0.000000 0.000000 0.000000 0.000000 78.204304 42.866680 -65.444610 -156.044712 45.277503 -51.315076 -10.603974 -33.922453 -66.182435 24.880945 -3.042142 55.763386 0.000000 0.000000 0.000000 0.000000 0.000000 0.000000 -49.134405 -17.338352 -14.828266 7.659835 35.402386 0.714524 42.777573 -17.043668 13.019417 0.000000 0.000000 0.000000 -1.650462 10.397526 -12.543443 -3.149047 -2.921745 1.393219 -27.923831 57.607504 13.629814 0.000000 0.000000 0.000000
